<svg width="745" height="120" viewBox="0 0 745 120" fill="none" xmlns="http://www.w3.org/2000/svg">
<path d="M48.461 116.242C41.055 116.242 34.3467 115.061 28.336 112.7C22.4327 110.231 17.3343 106.582 13.041 101.752C8.855 96.922 5.635 90.965 3.381 83.881C1.127 76.6897 0 68.3713 0 58.926C0 49.4807 1.127 41.1087 3.381 33.81C5.635 26.404 8.855 20.2323 13.041 15.295C17.3343 10.2503 22.4327 6.44 28.336 3.864C34.3467 1.288 41.055 0 48.461 0C58.5503 0 66.9223 2.14667 73.577 6.44C80.2317 10.7333 85.5447 17.227 89.516 25.921L71.323 35.581C69.713 30.5363 67.0833 26.5113 63.434 23.506C59.7847 20.3933 54.7937 18.837 48.461 18.837C40.5183 18.837 34.1857 21.5203 29.463 26.887C24.8477 32.2537 22.54 39.767 22.54 49.427V67.137C22.54 76.9043 24.8477 84.4177 29.463 89.677C34.1857 94.829 40.5183 97.405 48.461 97.405C54.7937 97.405 59.9457 95.6877 63.917 92.253C67.9957 88.8183 70.9473 84.5787 72.772 79.534L89.999 89.677C85.9203 98.049 80.5 104.596 73.738 109.319C66.976 113.934 58.5503 116.242 48.461 116.242Z" fill="#00091A"/>
<path d="M157.703 37.7407H175.47V114.31H157.703V106.291C150.418 113.105 142.583 116.511 134.198 116.511C123.611 116.511 114.859 112.685 107.941 105.034C101.076 97.2247 97.6427 87.4767 97.6427 75.7895C97.6427 64.312 101.076 54.7473 107.941 47.0956C114.807 39.444 123.402 35.6181 133.726 35.6181C142.636 35.6181 150.628 39.2867 157.703 46.624V37.7407ZM115.724 75.7895C115.724 83.1267 117.689 89.1013 121.62 93.7133C125.655 98.3777 130.739 100.71 136.871 100.71C143.422 100.71 148.715 98.4563 152.751 93.9492C156.786 89.2848 158.804 83.3626 158.804 76.1826C158.804 69.0026 156.786 63.0804 152.751 58.416C148.715 53.8564 143.474 51.5766 137.028 51.5766C130.949 51.5766 125.865 53.8826 121.777 58.4946C117.742 63.159 115.724 68.9239 115.724 75.7895Z" fill="#00091A"/>
<path d="M192.966 37.7407H210.654V44.58C213.903 41.1734 216.786 38.8413 219.301 37.5834C221.87 36.2732 224.909 35.6181 228.421 35.6181C233.085 35.6181 237.959 37.138 243.043 40.1777L234.946 56.372C231.591 53.9612 228.316 52.7558 225.119 52.7558C215.476 52.7558 210.654 60.0406 210.654 74.6103V114.31H192.966V37.7407Z" fill="#00091A"/>
<path d="M316.983 80.1918H262.111C262.583 86.4809 264.627 91.4859 268.243 95.207C271.859 98.8756 276.497 100.71 282.158 100.71C286.56 100.71 290.202 99.6617 293.085 97.5654C295.915 95.469 299.138 91.5908 302.754 85.9306L317.691 94.2636C315.385 98.1943 312.948 101.575 310.38 104.405C307.812 107.182 305.06 109.488 302.125 111.323C299.19 113.105 296.02 114.415 292.613 115.253C289.207 116.092 285.512 116.511 281.529 116.511C270.103 116.511 260.932 112.843 254.014 105.505C247.096 98.1157 243.637 88.3152 243.637 76.104C243.637 63.9975 246.991 54.197 253.7 46.7026C260.46 39.3129 269.422 35.6181 280.585 35.6181C291.853 35.6181 300.763 39.2081 307.314 46.3881C313.812 53.5157 317.062 63.3948 317.062 76.0253L316.983 80.1918ZM298.824 65.727C296.36 56.2934 290.412 51.5766 280.978 51.5766C278.83 51.5766 276.812 51.9173 274.925 52.5986C273.038 53.2275 271.309 54.1708 269.737 55.4287C268.217 56.6341 266.907 58.1015 265.806 59.831C264.705 61.5605 263.867 63.5258 263.29 65.727H298.824Z" fill="#00091A"/>
<path d="M401.301 80.1918H346.429C346.9 86.4809 348.944 91.4859 352.56 95.207C356.177 98.8756 360.815 100.71 366.475 100.71C370.877 100.71 374.52 99.6617 377.402 97.5654C380.232 95.469 383.455 91.5908 387.072 85.9306L402.008 94.2636C399.702 98.1943 397.265 101.575 394.697 104.405C392.129 107.182 389.378 109.488 386.443 111.323C383.508 113.105 380.337 114.415 376.931 115.253C373.524 116.092 369.829 116.511 365.846 116.511C354.421 116.511 345.249 112.843 338.331 105.505C331.413 98.1157 327.954 88.3152 327.954 76.104C327.954 63.9975 331.309 54.197 338.017 46.7026C344.778 39.3129 353.74 35.6181 364.903 35.6181C376.171 35.6181 385.08 39.2081 391.631 46.3881C398.13 53.5157 401.379 63.3948 401.379 76.0253L401.301 80.1918ZM383.141 65.727C380.678 56.2934 374.729 51.5766 365.296 51.5766C363.147 51.5766 361.129 51.9173 359.243 52.5986C357.356 53.2275 355.626 54.1708 354.054 55.4287C352.534 56.6341 351.224 58.1015 350.123 59.831C349.023 61.5605 348.184 63.5258 347.608 65.727H383.141Z" fill="#00091A"/>
<path d="M415.888 37.7407H433.576V44.58C436.825 41.1734 439.708 38.8413 442.224 37.5834C444.792 36.2732 447.831 35.6181 451.343 35.6181C456.007 35.6181 460.881 37.138 465.965 40.1777L457.868 56.372C454.513 53.9612 451.238 52.7558 448.041 52.7558C438.398 52.7558 433.576 60.0406 433.576 74.6103V114.31H415.888V37.7407Z" fill="#00091A"/>
<path d="M633.198 89.0617C633.198 89.0617 633 89.5 631.717 90.7204C631.417 91.033 631.111 91.3393 630.798 91.6393C627.534 94.0446 624.029 96.5416 618.5 97.5C609.011 100.042 598.822 98.6466 588.816 95.2692C581.861 92.9214 575.735 89.236 570.628 84.5962C570.642 84.6414 570.656 84.6866 570.67 84.7317C572.837 91.5039 575.952 97.3279 580.015 102.204C584.213 107.08 589.359 110.805 595.453 113.378C601.547 115.951 608.521 117.238 616.376 117.238C626.668 117.238 635.403 114.936 642.58 110.33C649.758 105.59 655.107 98.5469 658.628 89.2013L638.721 79.6526C637.299 83.208 635.458 86.3444 633.198 89.0617Z" fill="#005BFF"/>
<path d="M596.248 82.558C595.176 79.3136 594.64 75.6363 594.64 71.526V52.2253C594.64 44.776 596.401 38.7487 599.922 34.1437C603.578 29.5386 609.063 27.236 616.376 27.236C622.064 27.236 626.533 28.7259 629.783 31.7057C633.168 34.55 635.471 38.207 636.689 42.6766L658.019 33.1278C654.904 24.7303 649.825 18.1613 642.783 13.4208C635.877 8.68032 627.074 6.31006 616.376 6.31006C608.521 6.31006 601.547 7.59677 595.453 10.1702C589.359 12.7436 584.213 16.4683 580.015 21.3443C576.434 25.5228 573.589 30.4905 571.481 36.2475C570.681 54.9128 580.145 72.789 596.248 82.558Z" fill="#005BFF"/>
<path d="M481.576 117.31V4.93201H530.198C540.287 4.93201 547.962 8.15201 553.221 14.592C558.48 21.032 561.11 29.6187 561.11 40.352C561.11 51.0853 558.48 59.672 553.221 66.112C547.962 72.552 540.287 75.772 530.198 75.772H504.599V117.31H481.576ZM504.599 55.647H527.3C530.413 55.647 532.828 54.842 534.545 53.232C536.37 51.622 537.282 48.9387 537.282 45.182V35.522C537.282 31.7653 536.37 29.082 534.545 27.472C532.828 25.862 530.413 25.057 527.3 25.057H504.599V55.647Z" fill="#005BFF"/>
<path d="M704.42 119.242C687.569 119.242 674.367 113.339 664.814 101.532L679.626 86.72C686.066 94.9847 694.492 99.117 704.903 99.117C715.636 99.117 721.003 94.3943 721.003 84.949C721.003 81.085 720.037 78.0797 718.105 75.933C716.173 73.7863 713.168 72.2837 709.089 71.425L698.785 69.493C688.374 67.561 680.699 63.9653 675.762 58.706C670.932 53.3393 668.517 45.9333 668.517 36.488C668.517 25.54 671.737 17.2217 678.177 11.533C684.617 5.84434 694.062 3 706.513 3C722.398 3 734.473 8.152 742.738 18.456L727.926 33.268C725.135 29.8333 721.969 27.311 718.427 25.701C714.992 23.9837 710.914 23.125 706.191 23.125C701.039 23.125 697.282 24.091 694.921 26.023C692.667 27.955 691.54 31.0677 691.54 35.361C691.54 39.1177 692.399 41.962 694.116 43.894C695.941 45.826 698.839 47.2213 702.81 48.08L713.114 50.173C718.588 51.3537 723.257 52.8027 727.121 54.52C731.092 56.13 734.312 58.223 736.781 60.799C739.357 63.375 741.182 66.434 742.255 69.976C743.436 73.518 744.026 77.6503 744.026 82.373C744.026 94.3943 740.645 103.571 733.883 109.904C727.121 116.129 717.3 119.242 704.42 119.242Z" fill="#005BFF"/>
</svg>
