<?xml version="1.0" encoding="UTF-8"?>
<svg width="243px" height="281px" viewBox="0 0 243 281" version="1.1" xmlns="http://www.w3.org/2000/svg" xmlns:xlink="http://www.w3.org/1999/xlink">
    <title>Artboard</title>
    <g id="Artboard" stroke="none" stroke-width="1" fill="none" fill-rule="evenodd">
        <g id="SeekNow_Logo" fill-rule="nonzero">
            <g id="Group">
                <path d="M121.32,-3.55271368e-15 L1.24344979e-14,70.05 L1.24344979e-14,210.14 L121.32,280.19 L242.64,210.14 L242.64,70.05 L121.32,-3.55271368e-15 Z M115.77,16.03 L115.77,136.89 L69.96,163.34 L58.86,169.75 L11.1,197.32 L11.1,82.87 L58.86,110.44 L58.86,104.03 L64.41,100.83 L16.65,73.26 L115.77,16.03 Z M126.87,264.16 L126.87,209.01 L121.32,212.22 L115.77,209.01 L115.77,264.16 L16.65,206.94 L64.41,179.37 L75.51,172.96 L121.32,146.51 L167.13,172.96 L172.68,169.75 L172.68,163.34 L126.87,136.89 L126.87,16.03 L225.99,73.25 L178.23,100.82 L183.78,104.02 L183.78,110.43 L231.54,82.86 L231.54,197.31 L183.78,169.74 L183.78,176.15 L178.23,179.36 L225.99,206.93 L126.87,264.16 Z" id="Shape" fill="#00B74F"></path>
                <g transform="translate(58.86, 71.18)" fill="#FF9800" id="Path">
                    <polygon points="11.1 39.27 56.91 12.82 56.91 -1.42108547e-14 5.55 29.65 -1.42108547e-14 32.85 -1.42108547e-14 39.26 -1.42108547e-14 98.57 11.1 92.16"></polygon>
                    <polygon points="119.37 29.65 68.01 -1.42108547e-14 68.01 12.82 113.82 39.27 113.82 92.16 113.82 98.57 108.27 101.77 62.46 128.22 16.66 101.77 5.55 108.19 56.91 137.84 62.46 141.04 68.01 137.84 119.37 108.19 124.92 104.98 124.92 98.57 124.92 39.26 124.92 32.85"></polygon>
                </g>
            </g>
        </g>
    </g>
</svg>